<?xml version="1.0" encoding="utf-8"?>
<!-- Generator: Adobe Illustrator 17.0.2, SVG Export Plug-In . SVG Version: 6.00 Build 0)  -->
<!DOCTYPE svg PUBLIC "-//W3C//DTD SVG 1.1//EN" "http://www.w3.org/Graphics/SVG/1.1/DTD/svg11.dtd">
<svg version="1.1" id="Layer_1" xmlns="http://www.w3.org/2000/svg" xmlns:xlink="http://www.w3.org/1999/xlink" x="0px" y="0px"
	 width="796.672px" height="58.244px" viewBox="0 0 796.672 58.244" enable-background="new 0 0 796.672 58.244"
	 xml:space="preserve">
<path d="M0,57.755V0h4.148v54.014h34.491v3.742H0z"/>
<path d="M107.96,0.407h4.067l8.623,20.987l8.623-20.987h4.067l-10.168,24.322l12.121,28.146L157.418,0h4.555l-24.729,57.755h-3.823
	l-12.69-29.691L107.96,57.755h-3.823L79.489,0h4.474l22.207,52.875l11.958-28.146L107.96,0.407z"/>
<path d="M168.84,57.755V0h24.078c2.44,0,4.69,0.516,6.752,1.545c2.06,1.031,3.823,2.4,5.288,4.108
	c1.464,1.708,2.616,3.634,3.457,5.776c0.84,2.143,1.261,4.298,1.261,6.467c0,2.115-0.325,4.163-0.976,6.142
	c-0.651,1.98-1.574,3.756-2.766,5.328c-1.193,1.574-2.631,2.875-4.312,3.905c-1.682,1.031-3.526,1.708-5.531,2.034l14.398,22.451
	h-4.799l-13.991-21.801h-18.71v21.801H168.84z M172.988,32.131h20.255c1.843,0,3.524-0.407,5.043-1.22
	c1.518-0.813,2.819-1.883,3.904-3.213c1.084-1.328,1.912-2.847,2.481-4.556c0.569-1.708,0.854-3.457,0.854-5.247
	c0-1.843-0.339-3.62-1.017-5.328c-0.679-1.708-1.6-3.213-2.766-4.515c-1.167-1.302-2.521-2.345-4.067-3.132
	c-1.545-0.786-3.213-1.18-5.002-1.18h-19.686V32.131z"/>
<path d="M259.678,54.014v3.742h-38.477V0h37.745v3.742H225.35v22.696h29.366v3.579H225.35v23.997H259.678z"/>
<path d="M274.377,7.809v49.946h-4.148V0h3.172l40.51,50.841V0.081h4.148v57.674h-3.823L274.377,7.809z"/>
<path d="M327.528,28.471c0-3.47,0.61-6.927,1.83-10.372c1.22-3.443,2.996-6.52,5.328-9.232c2.331-2.711,5.192-4.921,8.582-6.63
	c3.389-1.708,7.252-2.562,11.592-2.562c5.151,0,9.544,1.18,13.178,3.539c3.632,2.359,6.317,5.383,8.053,9.07l-3.417,1.952
	c-0.976-2.005-2.156-3.687-3.539-5.043c-1.383-1.355-2.875-2.453-4.474-3.294c-1.6-0.84-3.268-1.45-5.003-1.83
	c-1.736-0.379-3.444-0.57-5.125-0.57c-3.688,0-6.942,0.746-9.762,2.237c-2.82,1.492-5.206,3.431-7.158,5.816
	c-1.952,2.387-3.431,5.084-4.434,8.094c-1.004,3.01-1.505,6.034-1.505,9.07c0,3.417,0.596,6.67,1.79,9.762
	c1.192,3.091,2.819,5.816,4.88,8.175c2.061,2.359,4.501,4.244,7.321,5.653c2.819,1.411,5.857,2.115,9.111,2.115
	c1.735,0,3.51-0.216,5.328-0.651c1.816-0.434,3.579-1.111,5.287-2.034c1.708-0.921,3.295-2.101,4.759-3.539
	c1.464-1.436,2.685-3.132,3.661-5.084l3.498,1.708c-0.976,2.17-2.292,4.095-3.945,5.776c-1.655,1.681-3.512,3.091-5.572,4.23
	c-2.062,1.139-4.244,1.993-6.548,2.562c-2.306,0.569-4.569,0.854-6.792,0.854c-3.959,0-7.579-0.867-10.859-2.603
	c-3.282-1.735-6.115-3.999-8.501-6.792c-2.387-2.792-4.244-5.965-5.572-9.518C328.192,35.779,327.528,32.16,327.528,28.471z"/>
<path d="M427.281,54.014v3.742h-38.477V0h37.744v3.742h-33.596v22.696h29.366v3.579h-29.366v23.997H427.281z"/>
<path d="M515.802,0v57.755h-4.148V30.098H475.21v27.658h-4.148V0h4.148v26.356h36.443V0H515.802z"/>
<path d="M551.358,58.162c-4.014,0-7.674-0.84-10.981-2.521c-3.309-1.681-6.155-3.877-8.541-6.589
	c-2.388-2.711-4.23-5.829-5.532-9.354c-1.301-3.525-1.952-7.13-1.952-10.819c0-3.85,0.691-7.537,2.074-11.063
	c1.383-3.524,3.281-6.642,5.694-9.354c2.413-2.711,5.273-4.867,8.582-6.467c3.308-1.599,6.887-2.399,10.738-2.399
	c4.012,0,7.673,0.854,10.981,2.562c3.307,1.708,6.142,3.945,8.5,6.711c2.359,2.766,4.189,5.897,5.491,9.396
	c1.302,3.498,1.952,7.036,1.952,10.615c0,3.905-0.691,7.62-2.074,11.145c-1.383,3.526-3.281,6.63-5.694,9.314
	c-2.413,2.685-5.261,4.828-8.541,6.426C558.773,57.363,555.209,58.162,551.358,58.162z M528.501,28.877
	c0,3.309,0.555,6.495,1.667,9.558c1.111,3.064,2.685,5.776,4.718,8.135c2.034,2.359,4.446,4.244,7.24,5.653
	c2.792,1.411,5.869,2.115,9.232,2.115c3.47,0,6.602-0.732,9.396-2.196c2.793-1.464,5.192-3.403,7.199-5.816
	c2.006-2.412,3.552-5.137,4.637-8.175c1.084-3.036,1.627-6.127,1.627-9.273c0-3.307-0.569-6.494-1.708-9.558
	c-1.139-3.063-2.726-5.775-4.759-8.134c-2.034-2.359-4.447-4.243-7.24-5.654c-2.793-1.409-5.844-2.115-9.151-2.115
	c-3.471,0-6.617,0.732-9.436,2.196c-2.82,1.464-5.221,3.404-7.199,5.816c-1.98,2.414-3.512,5.139-4.597,8.175
	C529.042,22.642,528.501,25.733,528.501,28.877z"/>
<path d="M587.916,57.755V0h4.148v54.014h34.491v3.742H587.916z"/>
<path d="M745.213,54.014v3.742h-38.477V0h37.744v3.742h-33.596v22.696h29.366v3.579h-29.366v23.997H745.213z"/>
<path d="M791.466,9.599c-3.742-4.175-9.029-6.264-15.862-6.264c-5.642,0-9.749,1.072-12.324,3.213
	c-2.576,2.143-3.864,5.031-3.864,8.663c0,1.844,0.325,3.39,0.977,4.637c0.65,1.248,1.667,2.292,3.051,3.132
	c1.383,0.841,3.145,1.574,5.287,2.196c2.142,0.624,4.678,1.234,7.605,1.831c3.145,0.65,5.965,1.37,8.46,2.156
	c2.494,0.787,4.623,1.777,6.386,2.969c1.762,1.194,3.118,2.658,4.067,4.393c0.948,1.736,1.424,3.878,1.424,6.427
	c0,2.549-0.502,4.772-1.505,6.67c-1.004,1.899-2.414,3.485-4.23,4.759c-1.817,1.275-3.985,2.237-6.508,2.888
	c-2.521,0.651-5.328,0.977-8.419,0.977c-9.003,0-16.622-2.874-22.858-8.623l2.196-3.335c2.44,2.55,5.423,4.569,8.948,6.06
	c3.524,1.492,7.484,2.237,11.877,2.237c5.043,0,8.988-0.921,11.836-2.766c2.847-1.843,4.271-4.636,4.271-8.378
	c0-1.897-0.366-3.511-1.099-4.84c-0.732-1.329-1.858-2.481-3.376-3.458c-1.519-0.976-3.403-1.816-5.653-2.521
	c-2.251-0.704-4.895-1.383-7.931-2.034c-3.092-0.651-5.816-1.342-8.176-2.074c-2.359-0.732-4.352-1.654-5.979-2.766
	c-1.627-1.111-2.848-2.453-3.661-4.026c-0.813-1.572-1.22-3.551-1.22-5.938c0-2.603,0.501-4.907,1.505-6.914
	c1.003-2.006,2.399-3.701,4.189-5.084c1.789-1.383,3.931-2.427,6.426-3.132c2.494-0.704,5.26-1.058,8.298-1.058
	c3.741,0,7.076,0.557,10.005,1.667c2.929,1.112,5.585,2.807,7.972,5.084L791.466,9.599z"/>
<text transform="matrix(-1 0 0 -1 89.2852 0.3452)" font-family="'Raleway-Light'" font-size="81.3457">V</text>
<text transform="matrix(-1 0 0 -1 709.2852 0.3452)" font-family="'Raleway-Light'" font-size="81.3457">W</text>
</svg>
